<svg id="レイヤー_1" data-name="レイヤー 1" xmlns="http://www.w3.org/2000/svg" viewBox="0 0 30 30"><defs><style>.cls-1{opacity:0.5;}.cls-2{fill:#364f65;}.cls-3{fill:#fff;}</style></defs><title>btn_arrow_right_transparent</title><g id="グループ_1576" data-name="グループ 1576"><g id="グループ_1884" data-name="グループ 1884"><g class="cls-1"><path id="パス_580-2" data-name="パス 580-2" class="cls-2" d="M0,15A15,15,0,1,1,15,30,15,15,0,0,1,0,15Z"/></g><path id="パス_873" data-name="パス 873" class="cls-3" d="M12.39,21.16a.44.44,0,0,1,0-.64L17.88,15,12.39,9.55a.44.44,0,0,1,0-.64l.7-.7a.45.45,0,0,1,.32-.14.43.43,0,0,1,.32.14l6.5,6.5a.44.44,0,0,1,0,.64l-6.5,6.5a.41.41,0,0,1-.32.15.43.43,0,0,1-.32-.14Z"/></g></g></svg>