<svg viewBox="0 0 20 20" xmlns="http://www.w3.org/2000/svg"><path d="m10 0a10 10 0 1 1 -10 10 10 10 0 0 1 10-10z" fill="#4390de"/><path d="m12.45 8a.5.5 0 0 1 -1 0v-.75h-3v.75a.5.5 0 0 1 -1 0v-.75h-1.45v6.5h8v-6.5h-1.55zm-3.95 4.75h-1v-1h1zm0-2h-1v-1h1zm2 2h-1v-1h1zm0-2h-1v-1h1zm2 2h-1v-1h1zm0-2h-1v-1h1z" fill="none"/><g fill="#fff"><path d="m14 6.25h-1.55v-.75a.5.5 0 0 0 -1 0v.75h-3v-.75a.5.5 0 1 0 -1 0v.75h-1.45a1 1 0 0 0 -1 1v6.5a1 1 0 0 0 1 1h8a1 1 0 0 0 1-1v-6.5a1 1 0 0 0 -1-1zm0 7.5h-8v-6.5h1.45v.75a.5.5 0 0 0 1 0v-.75h3v.75a.5.5 0 0 0 1 0v-.75h1.55z"/><path d="m7.5 9.75h1v1h-1z"/><path d="m9.5 9.75h1v1h-1z"/><path d="m11.5 9.75h1v1h-1z"/><path d="m7.5 11.75h1v1h-1z"/><path d="m9.5 11.75h1v1h-1z"/><path d="m11.5 11.75h1v1h-1z"/></g></svg>