<svg id="レイヤー_1" data-name="レイヤー 1" xmlns="http://www.w3.org/2000/svg" viewBox="0 0 16 16"><defs><style>.cls-1{fill:#fff;}</style></defs><title>btn_del_wh</title><path id="前面オブジェクトで型抜き_4" data-name="前面オブジェクトで型抜き 4" class="cls-1" d="M8,16a8,8,0,1,1,8-8A8,8,0,0,1,8,16Zm.14-6.32h0L11,12.51a1,1,0,0,0,.72.3,1,1,0,0,0,.7-.3,1,1,0,0,0,0-1.41L9.55,8.27l2.83-2.83A1,1,0,1,0,11,4h0L8.14,6.85,5.31,4a1.05,1.05,0,0,0-.71-.29A1,1,0,0,0,3.89,4a1,1,0,0,0,0,1.42L6.72,8.27,3.89,11.1a1,1,0,0,0,0,1.41.94.94,0,0,0,.69.29,1,1,0,0,0,.71-.29L8.13,9.69Z"/></svg>