<svg id="レイヤー_1" data-name="レイヤー 1" xmlns="http://www.w3.org/2000/svg" viewBox="0 0 14 14"><defs><style>.cls-1{fill:#4390de;}.cls-2{fill:#fff;}</style></defs><title>btn_arrow_up_s</title><path id="パス_580-2" data-name="パス 580-2" class="cls-1" d="M7,14a7,7,0,1,1,7-7A7,7,0,0,1,7,14Z"/><path id="パス_872" data-name="パス 872" class="cls-2" d="M10.73,9.21a.24.24,0,0,1,.07.17.24.24,0,0,1-.07.16l-.37.36a.2.2,0,0,1-.16.07A.21.21,0,0,1,10,9.9L7.18,7.05,4.33,9.9A.24.24,0,0,1,4,9.9l-.36-.36a.2.2,0,0,1-.07-.16.21.21,0,0,1,.07-.17L7,5.83a.24.24,0,0,1,.34,0Zm0-2.79a.24.24,0,0,1,0,.34l-.37.36a.2.2,0,0,1-.16.07A.21.21,0,0,1,10,7.12L7.18,4.27,4.33,7.12a.24.24,0,0,1-.34,0l-.36-.36a.24.24,0,0,1,0-.34L7,3a.24.24,0,0,1,.34,0Z"/></svg>