<svg id="レイヤー_1" data-name="レイヤー 1" xmlns="http://www.w3.org/2000/svg" viewBox="0 0 30 30"><defs><style>.cls-1{opacity:0.5;}.cls-2{fill:#364f65;}.cls-3{fill:#fff;}</style></defs><title>btn_arrow_left_transparent</title><g id="グループ_1576" data-name="グループ 1576"><g class="cls-1"><path id="パス_580-2" data-name="パス 580-2" class="cls-2" d="M30,15A15,15,0,1,1,15,0,15,15,0,0,1,30,15Z"/></g><path id="パス_873" data-name="パス 873" class="cls-3" d="M17.61,8.84a.44.44,0,0,1,0,.64L12.12,15l5.49,5.49a.44.44,0,0,1,0,.64l-.7.7a.45.45,0,0,1-.32.14.43.43,0,0,1-.32-.14l-6.5-6.5a.44.44,0,0,1,0-.64l6.5-6.5A.41.41,0,0,1,16.59,8a.43.43,0,0,1,.32.14Z"/></g></svg>