<svg id="レイヤー_1" data-name="レイヤー 1" xmlns="http://www.w3.org/2000/svg" viewBox="0 0 15.1 15.6"><defs><style>.cls-1{fill:#4390de;}</style></defs><title>icon_arrow_doubleright</title><path id="パス_878" data-name="パス 878" class="cls-1" d="M6.16,1.66a.48.48,0,0,1,0-.72L6.94.16a.48.48,0,0,1,.72,0l7.28,7.28a.48.48,0,0,1,0,.72L7.66,15.44a.48.48,0,0,1-.72,0l-.78-.78a.48.48,0,0,1,0-.72L12.3,7.8Zm-6,0a.48.48,0,0,1,0-.72L.94.16a.48.48,0,0,1,.72,0L8.94,7.44a.49.49,0,0,1,0,.72L1.66,15.44a.48.48,0,0,1-.72,0l-.78-.78a.49.49,0,0,1,0-.72L6.3,7.8Z"/></svg>