<svg id="レイヤー_1" data-name="レイヤー 1" xmlns="http://www.w3.org/2000/svg" viewBox="0 0 28 28.36"><defs><style>.cls-1{fill:#4390de;}</style></defs><title>icon_printed_blu</title><path id="合体_103" data-name="合体 103" class="cls-1" d="M9.59,28.36a2.23,2.23,0,0,1-2.27-2.2V19.28a9.39,9.39,0,0,0,1.83.44v6.44a.44.44,0,0,0,.44.43H25.74a.43.43,0,0,0,.43-.43h0V5.65a.42.42,0,0,0-.43-.42H19.16a9.13,9.13,0,0,0-1.25-1.77h7.82A2.23,2.23,0,0,1,28,5.65V26.16a2.23,2.23,0,0,1-2.27,2.2Zm2.66-6.69a.91.91,0,0,1-.92-.87.89.89,0,0,1,.92-.86H23.08a.87.87,0,1,1,0,1.73ZM0,9.5A9.5,9.5,0,1,1,9.5,19,9.52,9.52,0,0,1,0,9.5Zm8,3.73.28,0A1,1,0,0,0,8.94,13L14.6,7.32a1,1,0,0,0,0-1.42,1.05,1.05,0,0,0-.71-.29,1,1,0,0,0-.71.29L8,11.06,4.9,8a1.06,1.06,0,0,0-.7-.27,1,1,0,0,0-.72.3,1,1,0,0,0,0,1.42L7.11,13a1,1,0,0,0,.7.28l.14,0Zm8.24,4.59a9.39,9.39,0,0,0,1.72-1.73h5.17a.87.87,0,1,1,0,1.73ZM19.12,14a10.43,10.43,0,0,0,.55-1.72h3.41a.86.86,0,1,1,0,1.72Z"/></svg>