<svg xmlns="http://www.w3.org/2000/svg" viewBox="0 0 20 20"><defs><style>.cls-1{fill:#f5b439;}</style></defs><title>star_line</title><g id="レイヤー_2" data-name="レイヤー 2"><g id="レイヤー_1-2" data-name="レイヤー 1"><path id="パス_716" data-name="パス 716" class="cls-1" d="M10,2.61l2.09,4.44a1.1,1.1,0,0,0,.83.63l4.78.73L14.21,12a1.15,1.15,0,0,0-.3.95l.81,5-4.18-2.31a1.11,1.11,0,0,0-.54-.13,1.07,1.07,0,0,0-.53.13L5.29,17.92l.81-5A1.15,1.15,0,0,0,5.8,12L2.3,8.41l4.78-.73a1.11,1.11,0,0,0,.83-.62L10,2.61M10,0,6.91,6.59,0,7.64l5,5.13L3.82,20,10,16.59,16.18,20,15,12.77l5-5.13-6.91-1Z"/></g></g></svg>