<?xml version="1.0" encoding="utf-8"?>
<!-- Generator: Adobe Illustrator 23.1.1, SVG Export Plug-In . SVG Version: 6.00 Build 0)  -->
<svg version="1.1" id="レイヤー_1" xmlns="http://www.w3.org/2000/svg" xmlns:xlink="http://www.w3.org/1999/xlink" x="0px"
	 y="0px" viewBox="0 0 6 10" style="enable-background:new 0 0 6 10;" xml:space="preserve">
<style type="text/css">
	.st0{fill:#838C98;}
</style>
<path id="パス_813" class="st0" d="M0.1,5.2C0,5.2,0,5.1,0,5s0-0.2,0.1-0.2l4.8-4.7C5,0,5.1,0,5.1,0c0.1,0,0.2,0,0.2,0.1l0.5,0.5
	C6,0.7,6,0.7,6,0.8S6,1,5.9,1L1.8,5l4.1,3.9C6,9,6,9.1,6,9.2s0,0.2-0.1,0.2L5.4,9.9C5.3,10,5.2,10,5.1,10s-0.2,0-0.2-0.1L0.1,5.2z"
	/>
</svg>
