<?xml version="1.0" encoding="utf-8"?>
<!-- Generator: Adobe Illustrator 23.1.1, SVG Export Plug-In . SVG Version: 6.00 Build 0)  -->
<svg version="1.1" id="レイヤー_1" xmlns="http://www.w3.org/2000/svg" xmlns:xlink="http://www.w3.org/1999/xlink" x="0px"
	 y="0px" viewBox="0 0 10 6" style="enable-background:new 0 0 10 6;" xml:space="preserve">
<style type="text/css">
	.st0{fill:#838C98;}
</style>
<path id="パス_813" class="st0" d="M5.2,5.9C5.2,6,5.1,6,5,6S4.8,6,4.8,5.9L0.1,1.1C0,1,0,0.9,0,0.9c0-0.1,0-0.2,0.1-0.2l0.5-0.5
	C0.7,0,0.7,0,0.8,0S1,0,1,0.1l3.9,4.1l3.9-4.1C9,0,9.1,0,9.2,0s0.2,0,0.2,0.1l0.5,0.5C10,0.7,10,0.7,10,0.8C10,0.9,10,1,9.9,1
	L5.2,5.9z"/>
</svg>
