<?xml version="1.0" encoding="utf-8"?>
<!-- Generator: Adobe Illustrator 23.1.1, SVG Export Plug-In . SVG Version: 6.00 Build 0)  -->
<svg version="1.1" id="レイヤー_1" xmlns="http://www.w3.org/2000/svg" xmlns:xlink="http://www.w3.org/1999/xlink" x="0px"
	 y="0px" viewBox="0 0 10 6" style="enable-background:new 0 0 10 6;" xml:space="preserve">
<style type="text/css">
	.st0{fill:#4390DE;}
</style>
<path id="パス_813" class="st0" d="M4.8,0.1C4.8,0,4.9,0,5,0s0.2,0,0.2,0.1l4.7,4.8C10,5,10,5.1,10,5.1c0,0.1,0,0.2-0.1,0.2
	L9.4,5.8C9.3,6,9.3,6,9.2,6C9.1,6,9,6,9,5.9L5,1.8L1.1,5.9C1,6,0.9,6,0.8,6S0.6,6,0.6,5.9L0.1,5.4C0,5.3,0,5.2,0,5.1s0-0.2,0.1-0.2
	L4.8,0.1z"/>
</svg>
