<?xml version="1.0" encoding="utf-8"?>
<!-- Generator: Adobe Illustrator 23.1.1, SVG Export Plug-In . SVG Version: 6.00 Build 0)  -->
<svg version="1.1" id="レイヤー_1" xmlns="http://www.w3.org/2000/svg" xmlns:xlink="http://www.w3.org/1999/xlink" x="0px"
	 y="0px" viewBox="0 0 6 10" style="enable-background:new 0 0 6 10;" xml:space="preserve">
<style type="text/css">
	.st0{fill:#4390DE;}
</style>
<path id="パス_813" class="st0" d="M5.9,4.8C6,4.8,6,4.9,6,5s0,0.2-0.1,0.2L1.1,9.9C1,10,0.9,10,0.9,10c-0.1,0-0.2,0-0.2-0.1
	L0.2,9.4C0,9.3,0,9.3,0,9.2C0,9.1,0,9,0.1,9l4.1-3.9L0.1,1.2C0,1,0,0.9,0,0.8s0-0.2,0.1-0.2l0.5-0.5C0.7,0,0.8,0,0.9,0
	s0.2,0,0.2,0.1L5.9,4.8z"/>
</svg>
