<svg id="レイヤー_1" data-name="レイヤー 1" xmlns="http://www.w3.org/2000/svg" viewBox="0 0 15.1 15.6"><defs><style>.cls-1{fill:#4390de;}</style></defs><title>icon_arrow_doubleleft</title><path id="パス_875" data-name="パス 875" class="cls-1" d="M8.94,13.94a.49.49,0,0,1,0,.72l-.78.78a.48.48,0,0,1-.72,0L.16,8.16a.49.49,0,0,1,0-.72L7.44.16a.48.48,0,0,1,.72,0l.78.78a.49.49,0,0,1,0,.72L2.8,7.8Zm6,0a.48.48,0,0,1,0,.72l-.78.78a.49.49,0,0,1-.72,0L6.16,8.16a.48.48,0,0,1,0-.72L13.44.16a.48.48,0,0,1,.72,0l.78.78a.48.48,0,0,1,0,.72L8.8,7.8Z"/></svg>