<svg xmlns="http://www.w3.org/2000/svg" viewBox="0 0 10 13.22"><defs><style>.cls-1{fill:none;}.cls-2{fill:#fff;}</style></defs><title>icon_map</title><g id="レイヤー_2" data-name="レイヤー 2"><g id="レイヤー_1-2" data-name="レイヤー 1"><path id="パス_708" data-name="パス 708" class="cls-1" d="M5,1A3.87,3.87,0,0,0,1,4.7c0,2.41,3,5.9,4,7.06C6,10.6,9,7.11,9,4.7A3.87,3.87,0,0,0,5,1ZM5,6.7a2.06,2.06,0,0,1-2.11-2A2.07,2.07,0,0,1,5,2.7a2.07,2.07,0,0,1,2.11,2A2.06,2.06,0,0,1,5,6.7Z"/><ellipse id="楕円形_374" data-name="楕円形 374" class="cls-1" cx="5" cy="4.7" rx="1.11" ry="1"/><path id="パス_709" data-name="パス 709" class="cls-2" d="M5,0A4.86,4.86,0,0,0,0,4.7c0,3.31,4.45,8,4.64,8.15l.36.37.36-.37C5.55,12.65,10,8,10,4.7A4.86,4.86,0,0,0,5,0ZM5,11.76C4,10.6,1,7.11,1,4.7A3.87,3.87,0,0,1,5,1,3.87,3.87,0,0,1,9,4.7C9,7.11,6,10.6,5,11.76Z"/><path id="パス_710" data-name="パス 710" class="cls-2" d="M5,2.7a2.07,2.07,0,0,0-2.11,2A2.06,2.06,0,0,0,5,6.7a2.06,2.06,0,0,0,2.11-2A2.07,2.07,0,0,0,5,2.7Zm0,3a1.06,1.06,0,0,1-1.11-1A1.07,1.07,0,0,1,5,3.7a1.07,1.07,0,0,1,1.11,1A1.06,1.06,0,0,1,5,5.7Z"/></g></g></svg>