<svg id="レイヤー_1" data-name="レイヤー 1" xmlns="http://www.w3.org/2000/svg" viewBox="0 0 14 16"><defs><style>.cls-1{fill:none;}.cls-2{fill:#fff;}</style></defs><title>icon_print_wh</title><path id="パス_894" data-name="パス 894" class="cls-1" d="M12.75.94H4.56v2.8a.62.62,0,0,1-.65.59h-3V14.78a.3.3,0,0,0,.32.28h11.5a.29.29,0,0,0,.31-.28V1.22A.3.3,0,0,0,12.75.94ZM10.86,11.79H3.14a.59.59,0,0,1-.65-.52A.6.6,0,0,1,3,10.62h7.84a.59.59,0,0,1,.64.53.58.58,0,0,1-.52.64A.24.24,0,0,1,10.86,11.79Zm0-2.54H3.14a.61.61,0,0,1-.65-.53A.59.59,0,0,1,3,8.08h7.84a.58.58,0,0,1,.64.52.59.59,0,0,1-.52.65Zm0-2.55H3.14a.61.61,0,0,1-.65-.53A.59.59,0,0,1,3,5.53a.24.24,0,0,1,.12,0h7.72a.58.58,0,0,1,.64.52A.59.59,0,0,1,11,6.7Z"/><path id="パス_895" data-name="パス 895" class="cls-1" d="M3.39,1.66,2.34,2.71H3.39Z"/><path id="パス_896" data-name="パス 896" class="cls-2" d="M12.46,0H4.15a.61.61,0,0,0-.39.13.63.63,0,0,0-.23.2L.18,3.41a.55.55,0,0,0-.18.4V14.59A1.48,1.48,0,0,0,1.54,16H12.47A1.48,1.48,0,0,0,14,14.59V1.41A1.48,1.48,0,0,0,12.46,0Zm-9,2V3.3H2.05Zm9.32,12.57a.28.28,0,0,1-.3.27H1.53a.28.28,0,0,1-.3-.27V4.43H4.06a.59.59,0,0,0,.61-.57V1.14h7.79a.28.28,0,0,1,.3.27Z"/><path id="パス_897" data-name="パス 897" class="cls-2" d="M11.33,5.67H2.77c-.4,0-.72.23-.72.5s.33.5.72.5h8.56c.4,0,.72-.22.72-.5S11.73,5.67,11.33,5.67Z"/><path id="パス_898" data-name="パス 898" class="cls-2" d="M11.33,8.18H2.77c-.4,0-.72.23-.72.5s.33.5.72.5h8.56c.4,0,.72-.22.72-.5S11.73,8.18,11.33,8.18Z"/><path id="パス_899" data-name="パス 899" class="cls-2" d="M11.33,10.69H2.77c-.4,0-.72.22-.72.5s.33.5.72.5h8.56c.4,0,.72-.22.72-.5S11.73,10.69,11.33,10.69Z"/></svg>