<svg xmlns="http://www.w3.org/2000/svg" viewBox="0 0 10 9.75"><defs><style>.cls-1{fill:none;}.cls-2{fill:#838c98;}</style></defs><title>icon_calendar</title><g id="レイヤー_2" data-name="レイヤー 2"><g id="レイヤー_1-2" data-name="レイヤー 1"><path id="パス_694" data-name="パス 694" class="cls-1" d="M7.45,3a.5.5,0,0,1-1,0V2.25h-3V3a.5.5,0,0,1-1,0V2.25H1v6.5H9V2.25H7.45ZM3.5,7.75h-1v-1h1Zm0-2h-1v-1h1Zm2,2h-1v-1h1Zm0-2h-1v-1h1Zm2,2h-1v-1h1Zm0-2h-1v-1h1Z"/><path id="パス_695" data-name="パス 695" class="cls-2" d="M9,1.25H7.45V.5a.5.5,0,0,0-1,0v.75h-3V.5a.5.5,0,0,0-1,0v.75H1a1,1,0,0,0-1,1v6.5a1,1,0,0,0,1,1H9a1,1,0,0,0,1-1V2.25A1,1,0,0,0,9,1.25Zm0,7.5H1V2.25H2.45V3a.5.5,0,0,0,1,0V2.25h3V3a.5.5,0,0,0,1,0V2.25H9Z"/><rect id="長方形_1179" data-name="長方形 1179" class="cls-2" x="2.5" y="4.75" width="1" height="1"/><rect id="長方形_1180" data-name="長方形 1180" class="cls-2" x="4.5" y="4.75" width="1" height="1"/><rect id="長方形_1181" data-name="長方形 1181" class="cls-2" x="6.5" y="4.75" width="1" height="1"/><rect id="長方形_1182" data-name="長方形 1182" class="cls-2" x="2.5" y="6.75" width="1" height="1"/><rect id="長方形_1183" data-name="長方形 1183" class="cls-2" x="4.5" y="6.75" width="1" height="1"/><rect id="長方形_1184" data-name="長方形 1184" class="cls-2" x="6.5" y="6.75" width="1" height="1"/></g></g></svg>