<svg id="レイヤー_1" data-name="レイヤー 1" xmlns="http://www.w3.org/2000/svg" viewBox="0 0 16 16"><defs><style>.cls-1{fill:none;}.cls-2{fill:#fff;}</style></defs><title>icon_printed_wh</title><g id="グループ_1922" data-name="グループ 1922"><path id="パス_907" data-name="パス 907" class="cls-1" d="M5,8.26l1-1,.48-.48L9,4.26A1,1,0,0,0,9,2.84H9a1,1,0,0,0-1.41,0l-.95,1-.94.94-1.4,1.4-.6-.6L3,4.84a1,1,0,0,0-1.41,0,1,1,0,0,0,0,1.42l2,2,.11.07a1.07,1.07,0,0,0,.6.22,1.1,1.1,0,0,0,.46-.13A1.67,1.67,0,0,0,5,8.26Z"/><path id="パス_908" data-name="パス 908" class="cls-1" d="M11.17,6.9h2a.51.51,0,0,1,.53.5h0a.51.51,0,0,1-.52.5H10.84a5,5,0,0,1-.7,1.17h3a.51.51,0,0,1,.53.5h0a.5.5,0,0,1-.53.5h-4A5.45,5.45,0,0,1,5.8,11.2a4.62,4.62,0,0,1-.74-.06v3.63a.25.25,0,0,0,.25.24h9.37a.25.25,0,0,0,.26-.24V3.23A.25.25,0,0,0,14.69,3H10.58a5.43,5.43,0,0,1,.72,2.7A6,6,0,0,1,11.17,6.9Zm2,5.33H6.86a.51.51,0,0,1-.53-.5h0a.5.5,0,0,1,.52-.5h6.29a.51.51,0,0,1,.53.49h0a.51.51,0,0,1-.53.49Z"/><path id="パス_909" data-name="パス 909" class="cls-2" d="M14.69,1.8H9.86a6,6,0,0,1,.73,1h4.1a.25.25,0,0,1,.25.24v11.7a.24.24,0,0,1-.25.24H5.31a.24.24,0,0,1-.25-.24V11.08A5.47,5.47,0,0,1,4,10.82v3.93A1.28,1.28,0,0,0,5.31,16h9.37A1.29,1.29,0,0,0,16,14.75V3.05A1.28,1.28,0,0,0,14.69,1.8Z"/><path id="パス_910" data-name="パス 910" class="cls-2" d="M13.67,7.29a.51.51,0,0,0-.53-.5h-2a5.86,5.86,0,0,1-.33,1h2.3a.51.51,0,0,0,.53-.5Z"/><path id="パス_911" data-name="パス 911" class="cls-2" d="M13.67,9.48a.51.51,0,0,0-.53-.5h-3a5.26,5.26,0,0,1-1,1h4A.5.5,0,0,0,13.67,9.48Z"/><path id="パス_912" data-name="パス 912" class="cls-2" d="M13.14,11.18H6.86a.5.5,0,0,0-.53.5h0a.51.51,0,0,0,.53.5h6.28a.51.51,0,0,0,.53-.5.5.5,0,0,0-.53-.5Z"/><path id="パス_913" data-name="パス 913" class="cls-2" d="M5.5,11A5.49,5.49,0,0,0,8.85,9.86a5.91,5.91,0,0,0,1-1,5.76,5.76,0,0,0,.7-1.17,5.72,5.72,0,0,0,.32-1,5.47,5.47,0,0,0-.59-3.9,5.08,5.08,0,0,0-.72-1A5.49,5.49,0,1,0,3.7,10.69a4.81,4.81,0,0,0,1.06.25A4.62,4.62,0,0,0,5.5,11ZM4.3,8.5a1,1,0,0,1-.6-.22l-.11-.07-2-2A1,1,0,0,1,3,4.79l.69.7.6.6,1.4-1.4,1-1,.94-.94A1,1,0,0,1,9,2.8H9A1,1,0,0,1,9,4.21L6.5,6.71,6,7.19l-1,1a.72.72,0,0,1-.25.16A.87.87,0,0,1,4.3,8.5Z"/></g></svg>